<svg width="16" height="16" viewBox="0 0 16 16" fill="none" xmlns="http://www.w3.org/2000/svg">
<g clip-path="url(#clip0_3_82)">
<rect width="16" height="16" rx="2" fill="#6CAFC9"/>
<path d="M3.50997 10.7915C3.16761 10.7915 2.85377 10.7463 2.56847 10.656C2.28317 10.5609 2.03829 10.4111 1.83382 10.2066C1.63411 10.0022 1.4772 9.73826 1.36308 9.41492C1.24895 9.09158 1.19189 8.69691 1.19189 8.23092V8.0954C1.19189 7.65794 1.25133 7.28229 1.37021 6.96846C1.48908 6.65463 1.65313 6.39786 1.86235 6.19815C2.07157 5.99844 2.31646 5.85103 2.597 5.75593C2.8823 5.66083 3.18663 5.61328 3.50997 5.61328C3.80002 5.61328 4.07106 5.64657 4.32308 5.71314C4.57985 5.77971 4.80333 5.88432 4.99353 6.02697C5.18849 6.16962 5.34541 6.35506 5.46428 6.58331C5.58791 6.81155 5.66161 7.08972 5.68539 7.41781H4.35874C4.33496 7.28467 4.29692 7.17293 4.24462 7.08258C4.19231 6.98748 4.12812 6.9114 4.05204 6.85434C3.97596 6.79253 3.89037 6.74973 3.79527 6.72596C3.70492 6.69743 3.60982 6.68316 3.50997 6.68316C3.36732 6.68316 3.23418 6.70931 3.11055 6.76162C2.99167 6.80917 2.88706 6.89 2.79671 7.00412C2.71112 7.11349 2.64218 7.25852 2.58987 7.43921C2.54232 7.6199 2.51855 7.83863 2.51855 8.0954V8.24518C2.51855 8.52098 2.5447 8.75397 2.597 8.94417C2.65406 9.12962 2.72777 9.28178 2.81811 9.40066C2.90846 9.51478 3.01307 9.59799 3.13194 9.65029C3.25082 9.69784 3.37683 9.72162 3.50997 9.72162C3.75247 9.72162 3.94505 9.66456 4.0877 9.55044C4.23511 9.43156 4.32545 9.24374 4.35874 8.98697H5.68539C5.66637 9.31982 5.59742 9.60037 5.47855 9.82861C5.36443 10.0568 5.20989 10.2423 5.01493 10.3849C4.82473 10.5276 4.60124 10.6322 4.34447 10.6988C4.0877 10.7606 3.80953 10.7915 3.50997 10.7915Z" fill="white"/>
<path d="M6.43403 5.706H9.78632V6.76162H7.71788V10.6988H6.43403V5.706Z" fill="white"/>
<path d="M11.563 10.7915C11.5107 10.7915 11.4584 10.7891 11.4061 10.7844C11.3586 10.7796 11.3158 10.7725 11.2777 10.763V9.70022C11.3158 9.70498 11.3538 9.70973 11.3919 9.71449C11.4299 9.71924 11.4751 9.72162 11.5274 9.72162C11.632 9.72162 11.7176 9.71686 11.7841 9.70735C11.8507 9.69309 11.9054 9.67169 11.9482 9.64316C11.991 9.61463 12.0267 9.57659 12.0552 9.52904C12.0837 9.48149 12.1099 9.42205 12.1336 9.35073L10.1365 5.706H11.4347L12.7613 8.23805L13.8027 5.706H15.058L13.389 9.48625C13.2796 9.72875 13.1726 9.93322 13.068 10.0996C12.9634 10.2613 12.8421 10.3945 12.7042 10.4991C12.5663 10.6037 12.4047 10.6774 12.2192 10.7202C12.0385 10.7677 11.8198 10.7915 11.563 10.7915Z" fill="white"/>
</g>
<defs>
<clipPath id="clip0_3_82">
<rect width="16" height="16" fill="white"/>
</clipPath>
</defs>
</svg>
